<svg width="1em" height="1em" viewBox="0 0 154 139" fill="none" xmlns="http://www.w3.org/2000/svg" class="sc-cFShuL eclcwH"><g opacity="0.3"><path fill-rule="evenodd" clip-rule="evenodd" d="M153.357 34.5091C153.357 32.1391 151.317 30.2176 148.8 30.2176C148.711 30.2176 148.623 30.2176 148.535 30.2248C149.254 28.4824 148.733 26.472 147.26 25.303C145.787 24.1341 143.72 24.0914 142.2 25.1986C141.481 22.8574 139.531 21.1088 137.135 20.656C134.738 20.2031 132.289 21.1204 130.773 23.0389C129.256 24.9575 128.921 27.5621 129.902 29.8054C128.281 29.0688 126.4 29.2089 124.906 30.1775C123.411 31.146 122.508 32.8106 122.508 34.5976C122.508 38.5182 125.985 39.6675 129.207 40.0894C132.635 40.5512 136.098 40.709 139.554 40.561C141.553 40.4792 143.545 40.2524 145.512 39.8821C146.493 39.693 147.466 39.4602 148.426 39.1777C149.768 38.7813 150.769 38.6371 151.843 37.7036C152.772 36.8962 153.357 35.7566 153.357 34.5091Z" fill="#006DCC" fill-opacity="0.1"></path></g><path fill-rule="evenodd" clip-rule="evenodd" d="M150.481 34.0002C150.481 31.4327 148.271 29.351 145.545 29.351C145.448 29.351 145.353 29.351 145.258 29.3589C146.037 27.4713 145.473 25.2933 143.877 24.0269C142.281 22.7606 140.041 22.7144 138.395 23.9138C137.616 21.3775 135.503 19.4832 132.907 18.9926C130.311 18.502 127.658 19.4957 126.015 21.5742C124.372 23.6526 124.009 26.4742 125.071 28.9045C123.316 28.1065 121.278 28.2583 119.659 29.3076C118.04 30.3569 117.062 32.1602 117.062 34.0961C117.062 38.3434 120.828 39.5885 124.319 40.0455C128.033 40.5457 131.784 40.7167 135.528 40.5564C137.694 40.4678 139.851 40.222 141.982 39.8209C143.045 39.616 144.1 39.3639 145.14 39.0579C146.593 38.6284 147.678 38.4721 148.841 37.4609C149.847 36.5862 150.481 35.3516 150.481 34.0002Z" fill="#006DCC" fill-opacity="0.1"></path><g opacity="0.3"><path fill-rule="evenodd" clip-rule="evenodd" d="M55.6356 13.585C55.6356 11.534 53.8703 9.87115 51.6926 9.87115C51.6153 9.87115 51.5391 9.87115 51.4629 9.87744C52.0853 8.36958 51.6346 6.62977 50.3597 5.61817C49.0848 4.60658 47.2962 4.56967 45.9811 5.52782C45.3584 3.5018 43.6709 1.9886 41.5972 1.59669C39.5235 1.20478 37.4043 1.99857 36.0918 3.65886C34.7793 5.31914 34.4891 7.57313 35.3379 9.51445C33.9359 8.87699 32.3077 8.99824 31.0145 9.83643C29.7213 10.6746 28.9399 12.1151 28.9395 13.6616C28.9395 17.0544 31.9481 18.049 34.7366 18.4141C37.7036 18.8137 40.6998 18.9502 43.6906 18.8222C45.4212 18.7514 47.1444 18.5551 48.8467 18.2347C49.6955 18.071 50.538 17.8696 51.3689 17.6251C52.5298 17.2821 53.3963 17.1572 54.3254 16.3494C55.1293 15.6507 55.6356 14.6645 55.6356 13.585Z" fill="#E6E6E6"></path></g><path fill-rule="evenodd" clip-rule="evenodd" d="M53.1464 13.145C53.1464 10.9231 51.234 9.12164 48.8748 9.12164C48.7911 9.12164 48.7085 9.12164 48.626 9.12846C49.3002 7.49494 48.812 5.61014 47.4309 4.51425C46.0497 3.41836 44.1121 3.37838 42.6873 4.41637C42.0128 2.22152 40.1847 0.582209 37.9382 0.157645C35.6917 -0.26692 33.3959 0.593017 31.974 2.39166C30.5521 4.1903 30.2377 6.63212 31.1572 8.73522C29.6384 8.04463 27.8745 8.17599 26.4736 9.08403C25.0726 9.99207 24.226 11.5526 24.2256 13.228C24.2256 16.9035 27.485 17.981 30.5058 18.3765C33.72 18.8094 36.966 18.9573 40.206 18.8186C42.0808 18.742 43.9476 18.5293 45.7918 18.1821C46.7113 18.0048 47.624 17.7866 48.5242 17.5218C49.7818 17.1502 50.7205 17.0149 51.7271 16.1398C52.5979 15.3828 53.1464 14.3145 53.1464 13.145Z" fill="#006DCC" fill-opacity="0.1"></path><g opacity="0.3"><path fill-rule="evenodd" clip-rule="evenodd" d="M35.7492 123.659C35.7492 122.671 34.8992 121.87 33.8507 121.87C33.8135 121.87 33.7768 121.87 33.7401 121.873C34.0398 121.147 33.8228 120.31 33.209 119.823C32.5951 119.336 31.734 119.318 31.1007 119.779C30.8009 118.804 29.9884 118.075 28.99 117.886C27.9916 117.698 26.9712 118.08 26.3392 118.879C25.7073 119.679 25.5676 120.764 25.9762 121.699C25.3012 121.392 24.5173 121.45 23.8946 121.854C23.272 122.257 22.8957 122.951 22.8955 123.695C22.8955 125.329 24.3441 125.808 25.6867 125.984C27.1153 126.176 28.5579 126.242 29.9979 126.18C30.8312 126.146 31.6608 126.052 32.4805 125.897C32.8892 125.818 33.2948 125.721 33.6949 125.604C34.2538 125.439 34.671 125.378 35.1184 124.99C35.5054 124.653 35.7492 124.178 35.7492 123.659Z" fill="#006DCC" fill-opacity="0.1"></path></g><path fill-rule="evenodd" clip-rule="evenodd" d="M34.5508 123.446C34.5508 122.376 33.63 121.509 32.4941 121.509C32.4538 121.509 32.4141 121.509 32.3743 121.512C32.6989 120.726 32.4639 119.818 31.7989 119.291C31.1339 118.763 30.201 118.744 29.515 119.244C29.1902 118.187 28.31 117.397 27.2283 117.193C26.1467 116.989 25.0413 117.403 24.3567 118.269C23.6721 119.135 23.5207 120.31 23.9634 121.323C23.2321 120.99 22.3829 121.054 21.7083 121.491C21.0338 121.928 20.6262 122.68 20.626 123.486C20.626 125.256 22.1953 125.775 23.6498 125.965C25.1974 126.174 26.7602 126.245 28.3203 126.178C29.2229 126.141 30.1217 126.039 31.0097 125.872C31.4524 125.786 31.8919 125.681 32.3253 125.554C32.9308 125.375 33.3828 125.31 33.8674 124.888C34.2867 124.524 34.5508 124.009 34.5508 123.446Z" fill="#F3FBFC"></path><g opacity="0.3"><path fill-rule="evenodd" clip-rule="evenodd" d="M148.473 115.782C148.473 112.82 145.923 110.418 142.778 110.418C142.666 110.418 142.556 110.418 142.446 110.427C143.345 108.249 142.694 105.736 140.852 104.275C139.011 102.813 136.427 102.76 134.528 104.144C133.628 101.218 131.191 99.0318 128.196 98.4657C125.2 97.8996 122.139 99.0462 120.243 101.444C118.347 103.843 117.928 107.098 119.154 109.902C117.129 108.982 114.777 109.157 112.909 110.368C111.041 111.578 109.913 113.659 109.912 115.893C109.912 120.794 114.258 122.23 118.286 122.758C122.571 123.335 126.899 123.532 131.219 123.347C133.719 123.245 136.208 122.961 138.667 122.498C139.893 122.262 141.11 121.971 142.31 121.618C143.987 121.122 145.239 120.942 146.581 119.775C147.742 118.766 148.473 117.342 148.473 115.782Z" fill="#006DCC" fill-opacity="0.1"></path></g><path fill-rule="evenodd" clip-rule="evenodd" d="M144.878 115.146C144.878 111.937 142.116 109.335 138.708 109.335C138.587 109.335 138.468 109.335 138.349 109.345C139.322 106.985 138.617 104.263 136.622 102.68C134.627 101.097 131.828 101.039 129.77 102.538C128.796 99.3679 126.156 97 122.911 96.3868C119.666 95.7735 116.349 97.0157 114.296 99.6137C112.242 102.212 111.788 105.739 113.116 108.777C110.922 107.779 108.374 107.969 106.351 109.28C104.327 110.592 103.104 112.846 103.104 115.266C103.104 120.575 107.812 122.132 112.175 122.703C116.818 123.328 121.506 123.542 126.186 123.341C128.894 123.231 131.591 122.924 134.255 122.422C135.583 122.166 136.901 121.851 138.201 121.468C140.018 120.932 141.374 120.736 142.828 119.472C144.086 118.379 144.878 116.836 144.878 115.146Z" fill="#006DCC" fill-opacity="0.1"></path><path fill-rule="evenodd" clip-rule="evenodd" d="M123.429 2.29618C109.772 6.87214 68.8143 21.0209 45.0752 33.9104C44.1436 34.4132 43.5075 35.3334 43.3638 36.3862C43.22 37.439 43.5858 38.4973 44.3481 39.2338C52.9223 47.517 77.2947 70.2722 98.6682 82.6937C99.7293 83.3069 101.003 83.428 102.159 83.0257C103.316 82.6234 104.243 81.7371 104.699 80.5959C109.39 68.9995 121.787 36.4862 127.236 5.57242C127.412 4.55434 127.041 3.51839 126.26 2.84619C125.479 2.174 124.403 1.965 123.429 2.29618Z" fill="#FBC037"></path><path fill-rule="evenodd" clip-rule="evenodd" d="M63.6943 56.8508L66.6596 85.778L81.6771 71.3127L74.5503 65.8276L126.187 2.80127L63.6943 56.8508Z" fill="#F38123"></path><path fill-rule="evenodd" clip-rule="evenodd" d="M74.5508 65.8276L66.6602 85.778L81.6776 71.3127L74.5508 65.8276Z" fill="#01959F"></path><path fill-rule="evenodd" clip-rule="evenodd" d="M25.4732 64.9349C21.3864 67.224 9.15531 74.2247 2.34759 79.7797C2.08028 79.9967 1.93236 80.3292 1.94962 80.6741C1.96688 81.019 2.14723 81.3348 2.43486 81.5238C5.67016 83.6495 14.8192 89.4394 22.3904 92.111C22.766 92.2425 23.1799 92.204 23.5252 92.0054C23.8704 91.8068 24.1131 91.4676 24.1905 91.0755C24.9927 87.0878 27.0007 75.9532 26.8854 65.7505C26.8805 65.4147 26.6999 65.1064 26.4102 64.939C26.1205 64.7717 25.7644 64.7701 25.4732 64.9349Z" fill="#E6E6E6"></path><path fill-rule="evenodd" clip-rule="evenodd" d="M9.6703 85.9774L12.3532 95.0357L16.2811 89.506L13.6759 88.1862L26.384 64.929L9.6703 85.9774Z" fill="#B3B3B3"></path><path fill-rule="evenodd" clip-rule="evenodd" d="M13.6762 88.1863L12.3535 95.0358L16.2813 89.5061L13.6762 88.1863Z" fill="#808080"></path><path fill-rule="evenodd" clip-rule="evenodd" d="M76.3053 117.18C72.891 118.324 62.6516 121.861 56.7168 125.084C56.4839 125.21 56.3249 125.44 56.2889 125.703C56.253 125.966 56.3445 126.231 56.535 126.415C58.6786 128.485 64.7717 134.174 70.1151 137.28C70.3803 137.433 70.6987 137.463 70.9878 137.363C71.277 137.262 71.5086 137.04 71.6228 136.755C72.7955 133.856 75.8949 125.728 77.2569 117.999C77.3009 117.745 77.2082 117.486 77.013 117.318C76.8177 117.15 76.5488 117.097 76.3053 117.18Z" fill="#E6E6E6"></path><path fill-rule="evenodd" clip-rule="evenodd" d="M61.3721 130.819L62.1134 138.051L65.8678 134.435L64.0861 133.063L76.9952 117.307L61.3721 130.819Z" fill="#B3B3B3"></path><path fill-rule="evenodd" clip-rule="evenodd" d="M64.086 133.063L62.1133 138.051L65.8676 134.434L64.086 133.063Z" fill="#808080"></path><path fill-rule="evenodd" clip-rule="evenodd" d="M142.262 60.7376C138.998 61.99 129.214 65.8491 123.591 69.2227C123.371 69.3544 123.226 69.5841 123.202 69.8409C123.178 70.0977 123.278 70.3505 123.47 70.5211C125.635 72.4398 131.78 77.7022 137.091 80.4903C137.355 80.6279 137.665 80.644 137.941 80.5343C138.217 80.4247 138.433 80.2001 138.532 79.9186C139.549 77.0578 142.218 69.0447 143.219 61.4922C143.251 61.2435 143.15 60.9962 142.954 60.8414C142.758 60.6865 142.495 60.6471 142.262 60.7376Z" fill="#E6E6E6"></path><path fill-rule="evenodd" clip-rule="evenodd" d="M128.344 74.5901L129.363 81.5729L132.854 77.9085L131.069 76.6531L142.936 60.8311L128.344 74.5901Z" fill="#B3B3B3"></path><path fill-rule="evenodd" clip-rule="evenodd" d="M131.068 76.6533L129.362 81.5731L132.853 77.9087L131.068 76.6533Z" fill="#808080"></path></svg>