<svg width="100%" viewBox="0 0 749 372" fill="none" xmlns="http://www.w3.org/2000/svg"> <g clip-path="url(#clip0)"> <path d="M665.3 0H87.5984C80.5763 0 74.8838 5.66793 74.8838 12.6597V359.34C74.8838 366.332 80.5763 372 87.5984 372H665.3C672.322 372 678.015 366.332 678.015 359.34V12.6597C678.015 5.66793 672.322 0 665.3 0Z" fill="#0E192D"></path> <path d="M206.861 9.26412L199.844 4.05759L196.062 6.57951L200.623 37.0052L207.589 33.1099C206.52 31.4828 206.713 16.152 206.861 9.26412Z" fill="#C3DFED"></path> <path d="M177.544 291.335H31.0256C20.7984 291.335 12.5077 299.619 12.5077 309.838V395.859C12.5077 406.077 20.7984 414.361 31.0256 414.361H177.544C187.771 414.361 196.062 406.077 196.062 395.859V309.838C196.062 299.619 187.771 291.335 177.544 291.335Z" fill="#152439"></path> <path d="M127.757 317.628C131.48 317.628 134.498 314.613 134.498 310.893C134.498 307.173 131.48 304.157 127.757 304.157C124.034 304.157 121.016 307.173 121.016 310.893C121.016 314.613 124.034 317.628 127.757 317.628Z" fill="#657F96"></path> <path d="M149.361 317.628C153.084 317.628 156.103 314.613 156.103 310.893C156.103 307.173 153.084 304.157 149.361 304.157C145.638 304.157 142.62 307.173 142.62 310.893C142.62 314.613 145.638 317.628 149.361 317.628Z" fill="#657F96"></path> <path d="M170.966 317.628C174.689 317.628 177.707 314.613 177.707 310.893C177.707 307.173 174.689 304.157 170.966 304.157C167.243 304.157 164.224 307.173 164.224 310.893C164.224 314.613 167.243 317.628 170.966 317.628Z" fill="#657F96"></path> <path d="M440.206 112.152H380.591C374.94 112.152 370.358 116.73 370.358 122.377V155.649C370.358 161.296 374.94 165.874 380.591 165.874H440.206C445.858 165.874 450.44 161.296 450.44 155.649V122.377C450.44 116.73 445.858 112.152 440.206 112.152Z" fill="#152439"></path> <path d="M381.079 124.162C382.693 124.162 384.002 122.854 384.002 121.241C384.002 119.627 382.693 118.319 381.079 118.319C379.464 118.319 378.155 119.627 378.155 121.241C378.155 122.854 379.464 124.162 381.079 124.162Z" fill="#657F96"></path> <path d="M390.5 124.162C392.115 124.162 393.424 122.854 393.424 121.241C393.424 119.627 392.115 118.319 390.5 118.319C388.885 118.319 387.576 119.627 387.576 121.241C387.576 122.854 388.885 124.162 390.5 124.162Z" fill="#657F96"></path> <path d="M399.922 124.162C401.536 124.162 402.846 122.854 402.846 121.241C402.846 119.627 401.536 118.319 399.922 118.319C398.307 118.319 396.998 119.627 396.998 121.241C396.998 122.854 398.307 124.162 399.922 124.162Z" fill="#657F96"></path> <path d="M434.196 129.681H381.079C379.464 129.681 378.155 130.989 378.155 132.602C378.155 134.216 379.464 135.524 381.079 135.524H434.196C435.811 135.524 437.12 134.216 437.12 132.602C437.12 130.989 435.811 129.681 434.196 129.681Z" fill="#657F96"></path> <path d="M421.282 138.932H381.16C379.5 138.932 378.155 140.276 378.155 141.935C378.155 143.593 379.5 144.937 381.16 144.937H421.282C422.942 144.937 424.287 143.593 424.287 141.935C424.287 140.276 422.942 138.932 421.282 138.932Z" fill="#657F96"></path> <path d="M170.803 341.974H73.1782C69.3654 341.974 66.2746 345.062 66.2746 348.872C66.2746 352.681 69.3654 355.77 73.1782 355.77H170.803C174.616 355.77 177.707 352.681 177.707 348.872C177.707 345.062 174.616 341.974 170.803 341.974Z" fill="#657F96"></path> <path d="M361.591 234.22L286.218 260.338C267.826 266.712 258.086 286.778 264.465 305.155L299.907 407.265C306.286 425.643 326.367 435.373 344.759 429.001L420.132 402.882C438.525 396.509 448.265 376.444 441.886 358.066L406.445 255.956C400.066 237.579 379.984 227.847 361.591 234.22Z" fill="#F9F9FA"></path> <path fill-rule="evenodd" clip-rule="evenodd" d="M400.178 253.47C431.66 263.623 508.059 306.041 558.379 394.948H499.09L400.178 253.47ZM285.494 275.106C261.265 300.731 238.917 344.217 227.819 387.948H300.031L285.494 275.106Z" fill="#EDEDEE"></path> <path d="M558.321 394.888V396.977C559.063 396.977 559.75 396.584 560.126 395.943C560.499 395.301 560.506 394.509 560.14 393.861L558.321 394.888ZM400.175 253.359L400.818 251.373C399.964 251.097 399.03 251.397 398.495 252.118C397.962 252.84 397.948 253.82 398.463 254.555L400.175 253.359ZM499.052 394.888L497.339 396.085C497.73 396.644 498.37 396.977 499.052 396.977V394.888ZM227.877 387.887L225.852 387.374C225.694 387.999 225.832 388.661 226.229 389.17C226.625 389.677 227.234 389.975 227.877 389.975V387.887ZM285.533 275.006L287.604 274.74C287.502 273.939 286.946 273.269 286.178 273.019C285.411 272.769 284.568 272.985 284.012 273.571L285.533 275.006ZM300.065 387.887V389.975C300.666 389.975 301.236 389.717 301.634 389.265C302.03 388.815 302.214 388.214 302.137 387.62L300.065 387.887ZM560.14 393.861C509.551 304.422 432.731 261.674 400.818 251.373L399.533 255.347C430.561 265.363 506.485 307.484 556.5 395.917L560.14 393.861ZM499.052 396.977H558.321V392.799H499.052V396.977ZM398.463 254.555L497.339 396.085L500.764 393.694L401.889 252.165L398.463 254.555ZM229.903 388.399C240.932 344.91 263.131 301.755 287.052 276.44L284.012 273.571C259.493 299.522 237.011 343.368 225.852 387.374L229.903 388.399ZM300.065 385.798H227.877V389.975H300.065V385.798ZM283.46 275.272L297.992 388.153L302.137 387.62L287.604 274.74L283.46 275.272Z" fill="#EDEDEE"></path> <path d="M500.24 382.61L416.614 261.413C458.685 283.916 499.106 351.587 514.057 382.61H500.24Z" fill="#E0E1E2"></path> <path d="M325.723 250.71L325.723 250.71C347.627 243.281 373.038 242.034 394.923 251.487C421.723 263.065 444.529 286.665 463.486 312.935C481.451 337.831 495.801 364.898 506.738 385.903H278.489C278.236 384.119 277.965 382.24 277.681 380.277L277.662 380.147L277.662 380.145L277.651 380.072L277.651 380.069L277.649 380.06L277.649 380.06C275.846 367.602 273.565 351.838 272.642 336.147C271.507 316.839 272.477 298.191 278.543 286.111C285.807 271.65 303.754 258.158 325.723 250.71Z" fill="white" stroke="black"></path> <path d="M395.121 251.029L395.831 249.391H395.83L395.121 251.029ZM463.891 312.642L462.442 313.686L463.891 312.642ZM325.562 250.236L326.136 251.926L325.562 250.236ZM278.096 285.887L279.693 286.688L278.096 285.887ZM272.143 336.176L273.927 336.071L272.143 336.176ZM277.154 380.132L275.385 380.386L277.154 380.132ZM277.156 380.143L278.925 379.888L277.156 380.143ZM277.167 380.219L275.398 380.476L277.167 380.219ZM278.054 386.403L276.285 386.651L276.501 388.188H278.054V386.403ZM507.562 386.403V388.188H510.506L509.148 385.578L507.562 386.403ZM394.412 252.668C420.895 264.107 443.534 287.485 462.442 313.686L465.34 311.599C446.296 285.205 423.192 261.21 395.831 249.391L394.412 252.668ZM326.136 251.926C347.821 244.572 372.892 243.373 394.413 252.668L395.83 249.391C373.298 239.657 347.28 240.985 324.987 248.545L326.136 251.926ZM279.693 286.688C286.75 272.638 304.351 259.314 326.136 251.926L324.987 248.545C302.696 256.105 284.129 269.895 276.5 285.086L279.693 286.688ZM273.927 336.071C272.793 316.77 273.794 298.434 279.693 286.688L276.5 285.086C270.134 297.759 269.224 316.961 270.36 336.282L273.927 336.071ZM278.923 379.875C277.119 367.412 274.846 351.701 273.927 336.071L270.36 336.282C271.289 352.084 273.584 367.941 275.385 380.386L278.923 379.875ZM278.925 379.888L278.923 379.875L275.385 380.386L275.387 380.398L278.925 379.888ZM278.935 379.964L278.925 379.888L275.387 380.398L275.398 380.476L278.935 379.964ZM279.823 386.155C279.549 384.201 279.25 382.131 278.935 379.964L275.398 380.476C275.712 382.644 276.011 384.707 276.285 386.651L279.823 386.155ZM507.562 384.618H278.054V388.188H507.562V384.618ZM462.442 313.686C480.555 338.788 494.991 366.12 505.977 387.228L509.148 385.578C498.165 364.477 483.622 336.934 465.34 311.599L462.442 313.686Z" fill="#F6F8FA"></path> <path d="M294.337 268.976C306.601 277.541 341.623 283.676 370.295 246.491C356.226 243.939 318.066 249.173 294.337 268.976Z" fill="#E0E1E2"></path> <path d="M388.957 287.602C395.731 287.602 401.221 282.116 401.221 275.348C401.221 268.58 395.731 263.094 388.957 263.094C382.183 263.094 376.693 268.58 376.693 275.348C376.693 282.116 382.183 287.602 388.957 287.602Z" fill="#2D3E50"></path> <path d="M389.949 278.789C388.959 279.245 387.974 279.419 386.996 279.308C386.025 279.178 385.135 278.803 384.323 278.185C383.506 277.552 382.853 276.7 382.362 275.629C381.865 274.545 381.66 273.485 381.748 272.453C381.842 271.401 382.193 270.455 382.801 269.614C383.402 268.762 384.237 268.088 385.307 267.596C386.363 267.11 387.411 266.915 388.447 267.015C389.478 267.1 390.416 267.454 391.259 268.074C392.11 268.676 392.784 269.518 393.279 270.602L392.11 271.141C392.6 272.212 392.831 273.258 392.803 274.28C392.782 275.283 392.531 276.182 392.048 276.981C391.561 277.766 390.861 278.368 389.949 278.789ZM392.331 283.049C391.392 283.481 390.429 283.7 389.441 283.707C388.452 283.713 387.511 283.491 386.616 283.038C386.342 282.892 386.17 282.691 386.1 282.434C386.044 282.171 386.088 281.92 386.233 281.676C386.399 281.408 386.618 281.243 386.894 281.181C387.182 281.111 387.454 281.147 387.709 281.285C388.271 281.571 388.881 281.715 389.537 281.717C390.195 281.718 390.866 281.561 391.553 281.245C392.186 280.952 392.698 280.534 393.088 279.985C393.491 279.432 393.713 278.786 393.759 278.044C393.802 277.302 393.629 276.502 393.236 275.643L391.946 272.826L391.801 270.779L393.279 270.602L395.24 274.887C395.719 275.932 395.921 276.984 395.846 278.044C395.776 279.117 395.441 280.095 394.839 280.982C394.249 281.861 393.413 282.549 392.331 283.049ZM389.529 276.82C390.216 276.505 390.75 276.065 391.134 275.505C391.517 274.944 391.727 274.319 391.762 273.631C391.813 272.935 391.671 272.224 391.338 271.497C391.005 270.769 390.56 270.198 390.001 269.781C389.451 269.346 388.838 269.093 388.164 269.018C387.492 268.944 386.811 269.065 386.124 269.382C385.437 269.698 384.902 270.136 384.519 270.696C384.136 271.258 383.923 271.893 383.879 272.6C383.829 273.297 383.97 274.007 384.303 274.735C384.636 275.462 385.081 276.033 385.64 276.448C386.199 276.866 386.814 277.109 387.487 277.184C388.161 277.258 388.842 277.137 389.529 276.82Z" fill="white"></path> <path d="M245.903 204.022C245.568 203.078 245.784 202.026 246.463 201.291L251.681 195.643C253.055 194.154 255.516 194.662 256.192 196.574L268.186 230.509C268.8 232.247 267.531 234.076 265.691 234.104L258.518 234.214C257.363 234.232 256.325 233.51 255.938 232.419L245.903 204.022Z" fill="#EDEDEE"></path> <path d="M346.455 168.496C346.121 167.556 345.289 166.877 344.298 166.735L336.676 165.637C334.667 165.348 333.069 167.288 333.746 169.193L345.765 202.996C346.379 204.727 348.52 205.347 349.972 204.212L355.633 199.793C356.544 199.08 356.897 197.869 356.512 196.782L346.455 168.496Z" fill="#EDEDEE"></path> <path d="M317.01 245.027C342.201 236.116 355.392 208.487 346.473 183.315C337.555 158.146 309.903 144.966 284.713 153.877C259.52 162.789 246.33 190.418 255.248 215.588C264.167 240.758 291.819 253.939 317.01 245.027Z" fill="#EDEDEE"></path> <path d="M316.138 242.566C339.969 234.136 352.449 207.999 344.011 184.187C335.574 160.376 309.415 147.907 285.583 156.338C261.752 164.767 249.274 190.905 257.711 214.716C266.148 238.528 292.307 250.998 316.138 242.566Z" fill="white"></path> <path d="M332.614 165.869C336.504 171.139 344.839 186.669 347.063 206.622C349.73 198.223 350.573 178.312 332.614 165.869Z" fill="#EDEDEE"></path> <path d="M254.844 192.792C255.143 199.356 258.455 216.727 269.312 233.694C261.939 228.824 248.721 213.824 254.844 192.792Z" fill="#EDEDEE"></path> <path fill-rule="evenodd" clip-rule="evenodd" d="M325.072 163.875C294.538 171.909 268.725 182.622 259.635 186.975L259.874 186.891C258.753 187.287 258.174 188.538 258.58 189.687L258.364 189.079C259.666 201.677 264.963 211.389 267.45 214.671L267.19 213.939C267.598 215.085 268.834 215.693 269.955 215.304L269.723 215.385C279.534 213.066 306.357 205.197 335.159 192.283L334.929 192.365C335.806 192.052 336.348 191.215 336.345 190.316L336.356 190.345C336.352 190.304 336.348 190.264 336.343 190.223C336.339 190.131 336.329 190.036 336.313 189.942C334.979 177.898 330.025 168.551 327.487 165.048C326.993 164.078 325.863 163.594 324.833 163.958L325.072 163.875Z" fill="#97ADC4"></path> <path fill-rule="evenodd" clip-rule="evenodd" d="M324.461 163.894C294.571 171.842 269.271 182.321 260.358 186.568L260.592 186.485C259.493 186.873 258.917 188.077 259.304 189.176L259.098 188.594C260.271 200.662 265.368 209.935 267.769 213.061L267.522 212.361C267.912 213.457 269.114 214.031 270.21 213.647L269.984 213.728C279.586 211.425 305.851 203.667 334.087 191.054L333.86 191.135C334.719 190.827 335.257 190.02 335.262 189.158L335.271 189.186C335.268 189.147 335.263 189.11 335.26 189.071C335.257 188.98 335.247 188.891 335.232 188.8C334.025 177.262 329.263 168.34 326.812 165.001C326.336 164.076 325.236 163.62 324.227 163.977L324.461 163.894Z" fill="#2D3E50"></path> <path fill-rule="evenodd" clip-rule="evenodd" d="M264.301 172.328C269.539 165.185 276.891 159.488 285.848 156.306C294.378 153.276 303.206 152.938 311.414 154.85C311.851 156.755 312.27 158.686 312.667 160.64L312.587 160.412C312.933 161.393 311.949 162.656 310.347 163.368C304.402 166.712 288.918 173.769 270.027 177.677C269.877 177.714 269.729 177.744 269.585 177.768C269.522 177.781 269.458 177.794 269.395 177.807L269.442 177.789C268.051 177.982 266.872 177.601 266.572 176.767L266.65 176.987C265.842 175.429 265.059 173.874 264.301 172.328Z" fill="#D8E0E9"></path> <path d="M303.084 244.937C339.857 234.994 345.68 204.928 343.996 191.137C345.079 193.463 346.614 202.346 346.635 203.017C342.118 236.645 315.719 244.976 303.084 244.937Z" fill="#E0E1E2"></path> <g clip-path="url(#clip1)"> <path d="M283.341 197.603L288.571 195.845L289.136 197.525L291.93 196.586L291.365 194.906L292.604 194.489L291.841 192.221L290.602 192.637L288.314 185.832L284.618 187.075L282.579 195.335L283.341 197.603ZM287.872 193.555L285.456 194.367L285.428 194.283L286.517 189.803L286.601 189.775L287.872 193.555ZM299.176 194.477C302.103 193.499 303.215 190.793 302.024 187.231C300.839 183.69 298.337 182.299 295.413 183.282C292.483 184.267 291.347 186.87 292.53 190.423C293.711 193.971 296.245 195.457 299.176 194.477ZM298.378 192.104C297.37 192.443 296.305 191.673 295.555 189.406C294.822 187.192 295.195 185.974 296.204 185.635C297.212 185.296 298.251 186.039 298.999 188.248C299.765 190.509 299.387 191.765 298.378 192.104ZM304.525 190.481L309.755 188.723L310.32 190.404L313.113 189.464L312.548 187.784L313.787 187.368L313.025 185.099L311.786 185.516L309.498 178.711L305.801 179.953L303.762 188.213L304.525 190.481ZM309.055 186.434L306.64 187.246L306.612 187.162L307.7 182.681L307.784 182.653L309.055 186.434Z" fill="#FE5785"></path> </g> <path fill-rule="evenodd" clip-rule="evenodd" d="M312.923 229.421C312.892 230.108 312.304 230.64 311.611 230.609C310.915 230.58 310.378 229.999 310.409 229.311C310.5 227.309 311.961 225.178 314.003 223.964C316.138 222.695 319.018 222.346 321.985 224.054C322.586 224.399 322.79 225.161 322.44 225.756C322.091 226.35 321.321 226.551 320.72 226.206C318.599 224.987 316.703 225.264 315.3 226.099C313.804 226.988 312.969 228.437 312.923 229.421Z" fill="#2D3E50"></path> <path d="M387.831 301.904L323.985 321.142C314.429 324.022 309.309 333.242 312.548 341.735L349.046 437.448C352.285 445.941 362.658 450.493 372.214 447.614L436.06 428.376C445.617 425.497 450.737 416.277 447.498 407.783L411 312.071C407.761 303.578 397.387 299.025 387.831 301.904Z" fill="#EDEDEE"></path> <path d="M384.48 330.723L346.218 342.063C336.646 344.9 331.474 354.098 334.665 362.606L358.248 425.476C361.44 433.984 371.786 438.582 381.358 435.745L419.622 424.405C429.194 421.567 434.366 412.37 431.175 403.862L407.592 340.992C404.4 332.484 394.053 327.886 384.48 330.723Z" fill="#C3DFED"></path> <path d="M326.841 338.382C328.782 337.764 329.791 335.863 329.094 334.138C328.397 332.414 326.259 331.518 324.32 332.137C322.379 332.755 321.372 334.656 322.067 336.381C322.764 338.105 324.901 339.001 326.841 338.382Z" fill="#11C5C6"></path> <path d="M336.519 335.308C338.46 334.69 339.467 332.789 338.772 331.065C338.075 329.34 335.937 328.444 333.998 329.063C332.057 329.683 331.048 331.583 331.745 333.307C332.442 335.032 334.579 335.928 336.519 335.308Z" fill="#F0FC68"></path> <path d="M346.197 332.237C348.136 331.619 349.145 329.718 348.448 327.993C347.753 326.269 345.615 325.373 343.674 325.992C341.735 326.61 340.726 328.511 341.423 330.236C342.12 331.96 344.256 332.855 346.197 332.237Z" fill="#B378D2"></path> <path d="M355.875 329.165C357.814 328.546 358.823 326.646 358.126 324.922C357.429 323.197 355.292 322.301 353.352 322.919C351.411 323.539 350.404 325.44 351.101 327.164C351.796 328.889 353.934 329.785 355.875 329.165Z" fill="#2984DF"></path> <path d="M122.072 104.686C166.704 104.686 202.885 68.5346 202.885 23.9398C202.885 -20.655 166.704 -56.8063 122.072 -56.8063C77.4403 -56.8063 41.2592 -20.655 41.2592 23.9398C41.2592 68.5346 77.4403 104.686 122.072 104.686Z" fill="#95B4C9"></path> <path d="M655.68 94.1361C700.311 94.1361 736.492 57.9849 736.492 13.3901C736.492 -31.2048 700.311 -67.356 655.68 -67.356C611.048 -67.356 574.867 -31.2048 574.867 13.3901C574.867 57.9849 611.048 94.1361 655.68 94.1361Z" fill="#11C5C6"></path> <path d="M156.996 13.4712C164.487 13.4712 170.56 7.4036 170.56 -0.0811586C170.56 -7.56592 164.487 -13.6335 156.996 -13.6335C149.505 -13.6335 143.432 -7.56592 143.432 -0.0811586C143.432 7.4036 149.505 13.4712 156.996 13.4712Z" fill="#E0EFF6"></path> <path d="M77.0767 80.6649C84.5676 80.6649 90.6402 74.5973 90.6402 67.1126C90.6402 59.6278 84.5676 53.5602 77.0767 53.5602C69.5857 53.5602 63.5131 59.6278 63.5131 67.1126C63.5131 74.5973 69.5857 80.6649 77.0767 80.6649Z" fill="#E0EFF6"></path> <path fill-rule="evenodd" clip-rule="evenodd" d="M600.967 77.5534C614.339 71.4544 636.742 57.1744 658.329 41.0859C679.889 25.0167 701.058 6.8313 711.754 -7.18742L706.976 -10.8283C696.825 2.47413 676.247 20.2391 654.736 36.2721C633.248 52.286 611.253 66.2603 598.472 72.0906C592.744 74.7029 589.077 75.3995 586.967 75.2394C585.959 75.1632 585.477 74.9057 585.264 74.7392C585.079 74.5941 584.925 74.3878 584.835 73.9916C584.618 73.0345 584.869 71.2445 586.11 68.9239C587.3 66.7008 589.187 64.3987 591.507 62.5741L587.79 57.8553C584.83 60.1829 582.397 63.1238 580.81 66.0946C579.273 68.9677 578.294 72.3222 578.975 75.3198C579.332 76.9009 580.16 78.3746 581.562 79.4697C582.936 80.5434 584.645 81.0861 586.512 81.2275C590.144 81.5031 594.934 80.3054 600.967 77.5534ZM618.4 22.4791C618.4 29.9639 612.328 36.0314 604.836 36.0314C597.345 36.0314 591.273 29.9639 591.273 22.4791C591.273 14.9943 597.345 8.92671 604.836 8.92671C612.328 8.92671 618.4 14.9943 618.4 22.4791ZM691.659 64.678C691.659 72.1628 685.587 78.2304 678.096 78.2304C670.604 78.2304 664.532 72.1628 664.532 64.678C664.532 57.1932 670.604 51.1257 678.096 51.1257C685.587 51.1257 691.659 57.1932 691.659 64.678Z" fill="#CDFCEC"></path> <path fill-rule="evenodd" clip-rule="evenodd" d="M173.159 -0.0811291C173.159 8.83783 165.922 16.0681 156.996 16.0681C148.07 16.0681 140.833 8.83783 140.833 -0.0811291C140.833 -9.00009 148.07 -16.2303 156.996 -16.2303C165.922 -16.2303 173.159 -9.00009 173.159 -0.0811291ZM93.2392 67.1126C93.2392 76.0315 86.0029 83.2618 77.0767 83.2618C68.1504 83.2618 60.9141 76.0315 60.9141 67.1126C60.9141 58.1937 68.1504 50.9634 77.0767 50.9634C86.0029 50.9634 93.2392 58.1937 93.2392 67.1126ZM193.177 47.002C193.364 46.2635 192.917 45.5129 192.178 45.3253C191.439 45.1376 190.689 45.5842 190.5 46.3226C185.544 65.8145 173.212 78.2734 159.613 86.0995C145.985 93.9412 131.123 97.1023 121.303 97.9555C120.543 98.0215 119.981 98.6904 120.047 99.4493C120.113 100.208 120.782 100.77 121.542 100.704C131.647 99.8264 146.925 96.5844 160.991 88.4906C175.083 80.3811 187.997 67.372 193.177 47.002Z" fill="#C3DFED"></path> <ellipse cx="385.383" cy="35.1387" rx="2.19284" ry="2.1911" fill="white"></ellipse> <ellipse cx="526.054" cy="121.971" rx="2.19292" ry="2.19114" fill="white"></ellipse> <ellipse cx="184.773" cy="260.903" rx="2.19291" ry="2.1911" fill="white"></ellipse> <ellipse cx="288.408" cy="83.5052" rx="2.19291" ry="2.1911" fill="white"></ellipse> <ellipse cx="341.2" cy="98.5995" rx="2.19293" ry="2.1911" fill="white"></ellipse> <ellipse cx="530.44" cy="26.0497" rx="2.19289" ry="2.1911" fill="white"></ellipse> <ellipse cx="556.268" cy="283.626" rx="2.19292" ry="2.19116" fill="white"></ellipse> <ellipse cx="562.603" cy="340.757" rx="2.19292" ry="2.1911" fill="white"></ellipse> <ellipse cx="576.572" cy="163.359" rx="2.19289" ry="2.19111" fill="white"></ellipse> <ellipse cx="209.788" cy="127.49" rx="2.19291" ry="2.1911" fill="white"></ellipse> <ellipse cx="655.68" cy="315.275" rx="2.1929" ry="2.19102" fill="white"></ellipse> <ellipse cx="448.247" cy="232.825" rx="2.19293" ry="2.19118" fill="white"></ellipse> </g> <path d="M716.44 139.906H641.213C635.253 139.906 630.42 144.738 630.42 150.699C630.42 156.66 635.253 161.492 641.213 161.492H716.44C722.401 161.492 727.233 156.66 727.233 150.699C727.233 144.738 722.401 139.906 716.44 139.906Z" fill="#95B4C9"></path> <path d="M738.279 156.948H663.071C657.15 156.948 652.35 161.744 652.35 167.66C652.35 173.576 657.15 178.372 663.071 178.372H738.279C744.2 178.372 749 173.576 749 167.66C749 161.744 744.2 156.948 738.279 156.948Z" fill="#95B4C9"></path> <path d="M682.834 175.288H607.733C601.782 175.288 596.958 180.084 596.958 186C596.958 191.916 601.782 196.712 607.733 196.712H682.834C688.785 196.712 693.609 191.916 693.609 186C693.609 180.084 688.785 175.288 682.834 175.288Z" fill="#95B4C9"></path> <path d="M704.121 175.288H649.96C644.013 175.288 639.192 180.084 639.192 186C639.192 191.916 644.013 196.712 649.96 196.712H704.121C710.067 196.712 714.888 191.916 714.888 186C714.888 180.084 710.067 175.288 704.121 175.288Z" fill="#95B4C9"></path> <path d="M692.587 210.508H638.426C632.48 210.508 627.659 215.34 627.659 221.301C627.659 227.262 632.48 232.094 638.426 232.094H692.587C698.534 232.094 703.355 227.262 703.355 221.301C703.355 215.34 698.534 210.508 692.587 210.508Z" fill="#95B4C9"></path> <path d="M719.39 210.508H718.346C712.399 210.508 707.578 215.34 707.578 221.301C707.578 227.262 712.399 232.094 718.346 232.094H719.39C725.337 232.094 730.157 227.262 730.157 221.301C730.157 215.34 725.337 210.508 719.39 210.508Z" fill="#95B4C9"></path> <path d="M97.4646 136H26.1505C20.4997 136 15.9189 140.578 15.9189 146.225C15.9189 151.872 20.4997 156.45 26.1505 156.45H97.4646C103.115 156.45 107.696 151.872 107.696 146.225C107.696 140.578 103.115 136 97.4646 136Z" fill="#95B4C9"></path> <path d="M81.5457 152.068H10.2316C4.58084 152.068 0 156.646 0 162.293C0 167.94 4.58084 172.518 10.2316 172.518H81.5457C87.1964 172.518 91.7773 167.94 91.7773 162.293C91.7773 156.646 87.1964 152.068 81.5457 152.068Z" fill="#95B4C9"></path> <path d="M117.602 136H66.1146C60.4614 136 55.8785 140.578 55.8785 146.225C55.8785 151.872 60.4614 156.45 66.1146 156.45H117.602C123.256 156.45 127.838 151.872 127.838 146.225C127.838 140.578 123.256 136 117.602 136Z" fill="#95B4C9"></path> <path d="M101.683 152.068H50.1958C44.5425 152.068 39.9597 156.646 39.9597 162.293C39.9597 167.94 44.5425 172.518 50.1958 172.518H101.683C107.337 172.518 111.92 167.94 111.92 162.293C111.92 156.646 107.337 152.068 101.683 152.068Z" fill="#95B4C9"></path> <path d="M81.4018 178.361H30.0304C24.3899 178.361 19.8174 182.939 19.8174 188.586C19.8174 194.233 24.3899 198.811 30.0304 198.811H81.4018C87.0423 198.811 91.6148 194.233 91.6148 188.586C91.6148 182.939 87.0423 178.361 81.4018 178.361Z" fill="#95B4C9"></path> <path d="M112.981 178H110.248C104.588 178 100 182.542 100 188.144C100 193.746 104.588 198.288 110.248 198.288H112.981C118.64 198.288 123.229 193.746 123.229 188.144C123.229 182.542 118.64 178 112.981 178Z" fill="#95B4C9"></path> <defs> <clipPath id="clip0"> <rect x="74.8838" width="603.131" height="372" rx="35" fill="white"></rect> </clipPath> <clipPath id="clip1"> <rect width="38.1024" height="13.9773" fill="white" transform="translate(277.003 188.401) rotate(-18.8265)"></rect> </clipPath> </defs> </svg>